<?xml version="1.0" encoding="utf-8"?>
<!-- Generator: Adobe Illustrator 21.1.0, SVG Export Plug-In . SVG Version: 6.00 Build 0)  -->
<svg version="1.1" id="Layer_1" xmlns="http://www.w3.org/2000/svg" xmlns:xlink="http://www.w3.org/1999/xlink" x="0px" y="0px"
	 viewBox="0 0 772.7 380" style="enable-background:new 0 0 772.7 380;" xml:space="preserve">
<style type="text/css">
	.st0{fill:none;stroke:#FFFFFF;stroke-width:2;stroke-miterlimit:10;}
	.st1{fill:#FFDE17;}
	.st2{fill:#00AEEF;}
</style>
<line class="st0" x1="8.8" y1="371.2" x2="762.6" y2="371.2"/>
<line class="st0" x1="385.7" y1="371.2" x2="385.7" y2="229.3"/>
<circle class="st0" cx="385.7" cy="119.3" r="110"/>
<g>
	<g>
		<path class="st1" d="M376.6,31.9h-0.4c-12,0-24.4,41.2-27.4,78c-2.9,35.5,1.9,63.7,12.8,75.6c2.6,2.9,5.8,4.9,9,5.9
			c-2.5-4.3-4.2-9.4-4.9-14.8c-0.2-1.9-0.4-4-0.4-6c0.1-12.6,6.2-22.4,12.7-32.9c6-9.6,12.7-20.3,16.3-35.4c0.1-0.7,0.4-1.3,0.5-2
			l4.2-19.7l0.2-1.2C394.8,47.8,387,31.9,376.6,31.9z"/>
		<path class="st2" d="M424.3,170.6L424.3,170.6L424.3,170.6z"/>
	</g>
	<path class="st2" d="M399.3,116.2L399.3,116.2L399.3,116.2z"/>
	<path class="st2" d="M387.5,201.9"/>
	<path class="st2" d="M398.8,106.5c-3.2,15.2-10,25.9-15.7,35.2c-6.1,9.7-11.9,19-11.9,30.7c-0.1,10.3,3.2,19.1,9.5,25.4
		c5.8,5.8,13.6,9,22.2,9c8.5,0,16.4-3.2,22.2-9c6.2-6.4,9.5-15.1,9.5-25.4l0,0c-0.1-11.9-5.9-21-11.9-30.7
		c-5.9-9.4-12.5-19.9-15.7-35.2l-4-18.4L398.8,106.5z"/>
</g>
</svg>
